<?xml version="1.0" encoding="utf-8" ?>
<svg xmlns="http://www.w3.org/2000/svg" xmlns:xlink="http://www.w3.org/1999/xlink" width="1024" height="1024">
	<path fill="#A52119" transform="scale(1.6 1.6)" d="M249.305 461.394C217.367 461.878 185.367 461.477 153.423 461.477L121.623 461.501C91.1518 461.531 82.8313 458.401 82.7948 424.67L82.8022 163.912C82.7839 145.888 81.1156 126.684 104.278 122.9C105.351 122.802 106.425 122.729 107.502 122.723L518.241 122.788C529.311 122.779 541.712 121.232 550.274 129.866C560.703 140.383 557.336 160.785 557.326 174.369L557.337 427.507C557.304 455.367 549.499 461.519 522.458 461.496L424.697 461.431C413.316 461.603 401.917 461.49 390.535 461.441C390.487 468.481 390.469 475.515 390.565 482.555C398.397 482.422 408.475 480.878 414.865 486.362C425.821 495.764 418.511 512.793 403.297 513.716C392.389 514.377 381.164 513.835 370.222 513.837L259.186 513.85C250.919 513.849 242.162 514.421 233.961 513.515C221.377 512.126 215.477 496.331 224.666 487.087C230.869 480.846 241.442 482.456 249.518 482.467C249.297 475.455 249.402 468.411 249.305 461.394ZM132.662 172.476C132.221 183.338 132.482 194.275 132.482 205.147L132.482 261.363C132.483 307.245 132.013 353.184 132.526 399.062L507.832 398.997C507.348 378.248 507.695 357.417 507.694 336.657L507.697 223.689C507.698 206.699 508.001 189.645 507.603 172.662C477.575 172.018 447.452 172.532 417.409 172.531L230.051 172.534C197.612 172.536 165.095 173.003 132.662 172.476Z"/>
</svg>
